 <svg  version="1.0" xmlns="http://www.w3.org/2000/svg"  width="300.000000pt" height="141.000000pt" viewBox="0 0 300.000000 141.000000"  preserveAspectRatio="xMidYMid meet">  <g transform="translate(0.000000,141.000000) scale(0.100000,-0.100000)" fill="#ffffff" stroke="none"> <path d="M369 911 l-29 -29 0 -177 0 -177 30 -30 c27 -26 35 -29 68 -24 47 9 77 9 123 1 29 -6 41 -2 65 18 l29 26 23 -22 c20 -19 36 -22 118 -24 88 -1 96 0 124 24 l30 25 31 -26 c17 -14 35 -26 40 -26 18 0 67 29 71 42 3 9 15 4 37 -15 34 -28 77 -35 112 -17 23 13 24 4 4 -44 -15 -35 -15 -37 9 -61 29 -29 89 -34 123 -10 12 9 48 63 79 121 57 106 73 118 74 52 0 -17 10 -34 26 -47 23 -18 41 -21 122 -21 90 0 98 2 124 27 34 33 38 81 8 108 -23 21 -26 35 -7 35 6 0 23 -21 36 -46 l25 -45 -32 -65 c-18 -35 -32 -70 -32 -77 0 -27 45 -57 86 -57 51 0 76 25 135 137 24 46 50 83 57 83 6 0 12 -4 12 -8 0 -14 64 -74 90 -84 39 -15 109 -11 152 8 38 17 40 17 70 -1 39 -23 122 -24 166 -1 62 32 83 91 53 150 -19 36 -19 41 -5 68 14 27 14 32 -1 54 -37 57 -151 59 -210 4 -21 -19 -21 -19 -57 6 -49 35 -114 42 -174 19 -34 -13 -49 -14 -57 -6 -6 6 -31 11 -56 11 -35 0 -51 -6 -72 -26 l-28 -27 -31 27 c-24 20 -42 26 -77 26 -39 0 -44 2 -38 18 20 52 17 71 -13 102 -30 29 -33 30 -125 30 -80 0 -98 -3 -121 -21 -19 -15 -26 -30 -26 -55 0 -51 -16 -74 -50 -74 -16 0 -42 -11 -60 -26 l-31 -27 -28 27 c-17 16 -38 26 -57 26 -39 0 -54 16 -54 58 0 24 -8 42 -29 63 -57 56 -134 30 -173 -60 l-20 -46 -27 54 c-15 29 -38 60 -52 67 -70 39 -149 -7 -149 -88 0 -65 -10 -75 -53 -55 -28 14 -52 16 -127 10 -105 -7 -110 -4 -110 64 0 79 -84 111 -141 54z m106 -206 l0 -195 -47 0 -48 0 0 195 0 195 48 0 47 0 0 -195z m503 100 c19 -49 37 -98 41 -109 5 -14 18 10 47 90 l41 109 50 3 50 3 12 -148 c7 -81 15 -169 18 -195 l6 -48 -45 0 c-43 0 -46 2 -52 31 -3 17 -6 70 -6 117 0 47 -3 82 -7 79 -3 -4 -23 -55 -42 -115 -35 -104 -37 -107 -65 -107 -29 0 -31 3 -67 114 l-37 114 -6 -54 c-4 -30 -7 -81 -9 -114 l-2 -60 -49 -3 c-49 -3 -49 -3 -43 25 3 15 11 104 18 196 l13 168 50 -3 50 -3 34 -90z m812 55 l0 -40 -68 0 -69 0 2 -37 3 -38 61 3 61 4 0 -36 c0 -20 0 -39 0 -43 0 -5 -28 -8 -61 -8 l-61 0 -3 -37 -2 -38 69 0 68 0 0 -40 0 -40 -112 0 -113 0 0 195 0 195 113 0 112 0 0 -40z m-1051 -115 c37 -19 39 -26 42 -137 l2 -93 -42 -3 -41 -3 0 78 c0 83 -9 103 -45 103 -36 0 -45 -20 -45 -102 l0 -78 -45 0 -45 0 0 120 0 120 45 0 c25 0 45 -5 45 -11 0 -5 10 -3 22 5 28 20 71 20 107 1z m1578 -5 c35 -21 47 -40 56 -87 l7 -33 -90 0 c-50 0 -90 -3 -90 -7 0 -13 34 -43 49 -43 9 0 26 7 39 15 19 14 25 14 53 -1 l32 -16 -26 -25 c-49 -49 -148 -47 -199 4 -80 80 -20 212 97 213 23 0 54 -9 72 -20z m270 7 c3 -4 1 -18 -5 -32 -11 -23 -16 -25 -52 -19 -55 9 -55 -18 0 -35 95 -28 92 -134 -6 -150 -40 -7 -112 3 -127 18 -5 5 -1 23 8 40 15 30 17 31 38 16 27 -19 67 -20 67 -1 0 8 -11 16 -23 20 -88 22 -105 118 -27 149 19 8 118 3 127 -6z m-1222 -58 l30 -61 27 61 27 61 50 0 50 0 -80 -152 c-44 -84 -86 -165 -92 -180 -10 -26 -16 -28 -65 -28 l-53 0 37 68 c21 37 41 72 46 78 5 7 -14 49 -47 107 -30 52 -55 98 -55 101 0 3 22 6 48 6 l48 0 29 -61z m562 6 c15 -30 30 -55 34 -55 4 0 17 25 29 55 l22 55 54 0 53 0 -29 -50 c-16 -27 -59 -108 -95 -180 l-66 -130 -50 0 c-27 0 -49 2 -49 4 0 3 18 39 41 80 l41 76 -33 57 c-18 32 -43 77 -57 101 l-24 42 51 0 51 0 27 -55z"/> <path d="M2228 703 c-9 -2 -19 -11 -22 -19 -4 -11 5 -14 40 -14 30 0 44 4 42 12 -5 14 -38 26 -60 21z"/> </g> </svg> 