<?xml version="1.0" standalone="no"?>
<!DOCTYPE svg PUBLIC "-//W3C//DTD SVG 20010904//EN"
 "http://www.w3.org/TR/2001/REC-SVG-20010904/DTD/svg10.dtd">
<svg version="1.0" xmlns="http://www.w3.org/2000/svg"
 width="500.000000pt" height="500.000000pt" viewBox="0 0 500.000000 500.000000"
 preserveAspectRatio="xMidYMid meet">

<g transform="translate(0.000000,500.000000) scale(0.100000,-0.100000)"
fill="#000000" stroke="none">
<path d="M1140 2650 l0 -270 65 0 65 0 0 270 0 270 -65 0 -65 0 0 -270z"/>
<path d="M1443 2711 c-35 -16 -43 -17 -43 -6 0 12 -14 15 -60 15 l-60 0 0
-170 0 -170 60 0 60 0 0 108 c0 96 2 111 20 127 27 24 70 22 92 -5 15 -18 18
-41 18 -126 l0 -104 55 0 55 0 0 133 c0 144 -6 164 -58 191 -50 26 -94 28
-139 7z"/>
<path d="M1830 2719 c-13 -6 -33 -17 -42 -26 -17 -15 -18 -15 -18 6 0 20 -4
22 -57 19 l-58 -3 -3 -167 -2 -168 60 0 60 0 0 106 c0 125 7 144 55 144 48 0
55 -19 55 -144 l0 -106 60 0 60 0 0 106 c0 125 7 144 55 144 48 0 55 -19 55
-144 l0 -106 60 0 60 0 0 128 0 127 50 -85 c28 -47 53 -95 56 -107 4 -15 -12
-54 -51 -127 l-57 -106 69 0 68 0 100 193 c83 159 100 187 103 162 6 -69 14
-96 39 -126 70 -83 211 -91 290 -17 31 29 29 34 -14 56 -37 19 -39 19 -68 1
-39 -24 -66 -24 -99 2 -52 41 -37 49 95 49 l122 0 -5 50 -5 50 55 -97 54 -98
-56 -113 -56 -113 67 3 68 3 100 192 100 193 5 -58 c6 -65 24 -99 72 -135 62
-47 165 -47 233 -1 20 13 34 20 30 14 -10 -17 75 -50 130 -50 103 0 166 56
151 133 -8 42 -30 63 -92 87 -29 10 -50 25 -53 35 -3 16 3 17 53 12 55 -5 57
-5 72 25 15 29 15 32 0 44 -26 19 -101 26 -144 14 -50 -13 -92 -46 -92 -71 0
-10 -4 -19 -10 -19 -5 0 -10 4 -10 9 0 20 -65 70 -106 80 -62 16 -119 4 -171
-36 l-44 -33 16 29 c8 17 15 32 15 36 0 3 -29 5 -64 5 l-64 0 -38 -85 c-44
-98 -39 -99 -101 18 l-35 67 -64 0 c-35 0 -64 -3 -64 -6 0 -3 5 -14 11 -25 9
-18 7 -18 -28 4 -72 47 -161 43 -232 -10 -30 -23 -32 -23 -22 -5 20 38 14 43
-51 40 l-63 -3 -41 -84 -40 -85 -48 87 -47 87 -66 0 c-54 0 -64 -3 -59 -15 4
-13 1 -12 -20 2 -40 26 -104 22 -151 -9 -40 -27 -41 -27 -58 -8 -16 18 -75 41
-100 39 -5 0 -21 -5 -35 -10z m973 -91 l22 -23 -32 -3 c-18 -2 -50 -2 -70 0
l-38 3 23 23 c12 12 33 22 47 22 14 0 35 -10 48 -22z m678 12 c10 -6 19 -17
19 -25 0 -12 -14 -15 -60 -15 -33 0 -60 3 -60 7 0 3 7 15 17 25 18 20 54 23
84 8z m237 -130 c25 -11 42 -25 40 -32 -7 -20 -53 -21 -88 -3 -30 15 -33 15
-44 0 -12 -16 -15 -16 -51 3 -39 19 -39 19 -77 0 -41 -22 -76 -19 -102 8 -9 8
-16 22 -16 30 0 11 23 14 120 14 115 0 120 1 120 21 l0 20 27 -21 c14 -11 46
-29 71 -40z"/>
<path d="M1641 2088 c1 -29 4 -43 6 -30 3 15 11 22 29 22 19 0 24 5 24 24 0
23 -16 36 -46 36 -10 0 -14 -13 -13 -52z m49 17 c0 -8 -9 -15 -20 -15 -11 0
-20 7 -20 15 0 8 9 15 20 15 11 0 20 -7 20 -15z"/>
<path d="M1812 2090 c0 -39 2 -47 7 -26 8 38 31 47 31 12 0 -13 5 -28 11 -31
7 -5 9 5 7 26 -2 26 -8 35 -25 37 -12 2 -24 11 -26 20 -3 9 -5 -8 -5 -38z"/>
<path d="M3130 2096 c0 -25 5 -48 10 -51 6 -4 10 7 10 24 0 21 5 31 15 31 10
0 15 -10 15 -32 0 -22 3 -29 11 -21 16 16 0 63 -22 63 -10 0 -19 7 -19 15 0 8
-4 15 -10 15 -5 0 -10 -20 -10 -44z"/>
<path d="M2152 2113 c-8 -8 -9 -13 -2 -13 5 0 10 -13 10 -30 0 -16 4 -30 9
-30 4 0 6 12 3 26 -2 14 0 29 6 33 6 4 6 10 -2 17 -9 8 -15 7 -24 -3z"/>
<path d="M1979 2094 c-9 -11 -10 -20 -2 -32 15 -24 44 -27 59 -7 28 38 -27 75
-57 39z m46 -19 c0 -28 -29 -25 -33 3 -3 19 0 23 15 20 10 -2 18 -12 18 -23z"/>
<path d="M2294 2096 c-11 -28 1 -51 25 -51 28 0 47 25 38 49 -8 20 -56 21 -63
2z m50 -5 c9 -14 -4 -41 -19 -41 -18 0 -28 17 -21 35 6 17 32 20 40 6z"/>
<path d="M2463 2094 c-9 -23 11 -49 36 -48 31 1 26 -14 -6 -18 -23 -4 -25 -6
-10 -12 27 -13 47 11 47 55 0 37 -2 39 -30 39 -19 0 -33 -6 -37 -16z m52 -19
c0 -11 -7 -21 -16 -23 -18 -3 -33 23 -23 39 10 17 39 5 39 -16z"/>
<path d="M2641 2073 c1 -27 3 -31 6 -13 2 14 12 31 21 38 14 11 13 12 -6 12
-19 0 -22 -5 -21 -37z"/>
<path d="M2785 2090 c-9 -27 11 -50 41 -48 20 2 24 8 24 35 0 30 -3 33 -29 33
-21 0 -32 -6 -36 -20z m50 -15 c0 -28 -29 -25 -33 3 -3 19 0 23 15 20 10 -2
18 -12 18 -23z"/>
<path d="M2961 2058 c1 -29 3 -45 6 -35 2 9 13 17 23 17 25 0 43 25 35 50 -4
14 -15 20 -36 20 -29 0 -29 -1 -28 -52z m52 30 c6 -19 -3 -38 -18 -38 -18 0
-28 17 -21 35 7 18 33 20 39 3z"/>
<path d="M3300 2091 c0 -33 11 -51 34 -52 19 -1 18 -2 -4 -8 -15 -4 -20 -10
-13 -14 20 -13 42 4 49 38 3 19 2 40 -2 47 -6 9 -10 4 -14 -16 -7 -41 -30 -46
-30 -7 0 17 -4 31 -10 31 -5 0 -10 -9 -10 -19z"/>
</g>
</svg>
