<?xml version="1.0" standalone="no"?>
<!DOCTYPE svg PUBLIC "-//W3C//DTD SVG 20010904//EN"
 "http://www.w3.org/TR/2001/REC-SVG-20010904/DTD/svg10.dtd">
<svg version="1.0" xmlns="http://www.w3.org/2000/svg"
 width="670.000000pt" height="155.000000pt" viewBox="0 0 670.000000 155.000000"
 preserveAspectRatio="xMidYMid meet">
<metadata>
Created by potrace 1.10, written by Peter Selinger 2001-2011
</metadata>
<g transform="translate(0.000000,155.000000) scale(0.100000,-0.100000)"
fill="#ffffff" stroke="none">
<path d="M776 1540 c-16 -5 -33 -7 -38 -4 -4 3 -16 0 -25 -5 -16 -9 -14 -10
10 -11 15 0 27 -5 27 -10 0 -6 15 -3 33 7 17 10 41 21 52 24 32 11 -23 9 -59
-1z"/>
<path d="M4405 1539 c-11 -17 -2 -18 19 -3 17 12 17 14 4 14 -9 0 -20 -5 -23
-11z"/>
<path d="M4480 1530 c0 -11 -5 -20 -12 -20 -6 0 -8 -3 -5 -7 4 -3 0 -15 -10
-25 -9 -10 -11 -18 -5 -18 6 0 13 6 15 13 3 6 6 -2 6 -20 1 -17 -5 -34 -11
-36 -9 -4 -8 -6 2 -6 13 -1 15 -29 15 -189 -1 -103 -4 -193 -8 -199 -5 -7 -5
-13 0 -13 12 0 11 -464 -1 -472 -5 -3 -37 -4 -70 -2 -34 3 -68 4 -76 4 -107
-4 -343 -3 -346 1 -2 4 -20 3 -40 -1 -20 -5 -47 -5 -59 0 -12 5 -28 4 -36 -1
-8 -5 -29 -9 -46 -9 -36 0 -44 18 -18 40 19 16 19 30 0 30 -8 0 -12 -6 -10
-13 2 -6 -2 -21 -10 -31 -14 -18 -29 -20 -175 -20 -88 -1 -160 1 -160 5 0 3 6
11 13 19 6 7 -1 6 -17 -4 -25 -16 -54 -19 -188 -20 -87 0 -158 3 -158 7 0 5
-6 5 -12 0 -26 -16 -76 -12 -94 8 -9 10 -22 19 -28 19 -6 0 -3 -7 7 -14 16
-12 16 -14 1 -20 -24 -9 -54 -7 -54 4 0 7 -6 7 -20 0 -15 -8 -20 -8 -20 2 0 8
-3 9 -8 3 -8 -12 -261 -14 -279 -2 -7 5 -13 5 -13 0 0 -4 -16 -8 -35 -8 -19 0
-35 3 -35 7 0 4 -6 6 -12 3 -33 -11 -168 -14 -168 -4 0 5 -4 8 -10 4 -13 -8
-124 -10 -136 -2 -5 3 -15 2 -22 -2 -10 -6 -339 -5 -397 1 -5 1 -20 -2 -32 -6
-14 -5 -23 -3 -23 3 0 6 -5 11 -11 11 -5 0 -8 -4 -5 -9 4 -5 -324 -9 -797 -9
-955 -1 -867 0 -867 -12 0 -7 757 -10 2250 -10 l2250 0 0 520 c0 340 -3 520
-10 520 -5 0 -10 -9 -10 -20z"/>
<path d="M1090 1520 c8 -5 20 -10 25 -10 6 0 3 5 -5 10 -8 5 -19 10 -25 10 -5
0 -3 -5 5 -10z"/>
<path d="M845 1509 c-11 -17 1 -21 15 -4 8 9 8 15 2 15 -6 0 -14 -5 -17 -11z"/>
<path d="M4373 1495 c-7 -8 -9 -16 -5 -19 4 -3 13 4 20 15 14 22 3 25 -15 4z"/>
<path d="M788 1473 c24 -8 12 -23 -20 -23 -17 0 -29 -3 -25 -6 3 -3 29 -3 57
1 54 7 56 20 5 27 -16 3 -24 3 -17 1z"/>
<path d="M4055 1470 c-3 -5 -1 -10 4 -10 6 0 11 5 11 10 0 6 -2 10 -4 10 -3 0
-8 -4 -11 -10z"/>
<path d="M1060 1458 c0 -4 4 -8 9 -8 6 0 12 4 15 8 3 5 -1 9 -9 9 -8 0 -15 -4
-15 -9z"/>
<path d="M1186 1462 c-3 -5 1 -9 9 -9 8 0 15 4 15 9 0 4 -4 8 -9 8 -6 0 -12
-4 -15 -8z"/>
<path d="M4345 1460 c-3 -5 -1 -10 4 -10 6 0 11 5 11 10 0 6 -2 10 -4 10 -3 0
-8 -4 -11 -10z"/>
<path d="M856 1434 c-6 -15 -4 -15 11 -3 10 7 20 15 22 16 2 2 -3 3 -11 3 -9
0 -19 -7 -22 -16z"/>
<path d="M4308 1416 c-9 -13 -14 -26 -11 -30 7 -6 43 32 43 46 0 15 -15 8 -32
-16z"/>
<path d="M4420 1430 c-8 -5 -12 -11 -9 -14 2 -3 11 -1 19 4 8 5 12 11 9 14 -2
3 -11 1 -19 -4z"/>
<path d="M1022 1418 c3 -7 9 -13 14 -14 5 0 16 -3 24 -7 25 -9 48 -5 43 9 -2
6 -12 11 -21 9 -9 -1 -28 2 -40 6 -18 7 -23 6 -20 -3z"/>
<path d="M800 1404 l-25 -15 25 7 c28 7 35 12 29 18 -2 2 -15 -2 -29 -10z"/>
<path d="M1255 1410 c-3 -5 -1 -10 4 -10 6 0 11 5 11 10 0 6 -2 10 -4 10 -3 0
-8 -4 -11 -10z"/>
<path d="M854 1398 c-3 -4 -4 -8 -2 -9 30 -5 98 -3 98 3 0 16 -87 21 -96 6z"/>
<path d="M1189 1383 c-12 -16 -12 -17 1 -7 8 7 24 14 35 17 19 4 19 5 -1 6
-12 0 -28 -7 -35 -16z"/>
<path d="M791 1371 c-8 -6 -2 -10 19 -15 46 -9 60 -8 60 5 0 6 -8 9 -19 6 -10
-2 -25 -1 -33 4 -7 4 -20 4 -27 0z"/>
<path d="M1275 1369 c-4 -6 -5 -12 -2 -15 2 -3 7 2 10 11 7 17 1 20 -8 4z"/>
<path d="M1355 1370 c-3 -5 -1 -10 4 -10 6 0 11 5 11 10 0 6 -2 10 -4 10 -3 0
-8 -4 -11 -10z"/>
<path d="M4276 1363 c-6 -15 -9 -15 -17 -3 -9 12 -10 12 -5 -3 3 -10 6 -22 6
-25 0 -4 7 4 16 16 9 13 14 25 11 28 -2 3 -8 -3 -11 -13z"/>
<path d="M983 1363 c-40 -5 -44 -19 -5 -17 123 5 128 6 97 14 -33 8 -44 9 -92
3z"/>
<path d="M1188 1344 c-9 -9 -30 -17 -46 -18 -17 -1 -28 -4 -25 -8 2 -5 -11 -8
-30 -8 -27 0 -36 -5 -40 -21 -5 -18 -11 -20 -33 -15 -33 9 -86 -2 -78 -15 3
-6 18 -9 32 -8 50 4 64 0 58 -16 -3 -8 -2 -15 3 -15 4 0 7 -104 7 -231 -1
-168 2 -233 11 -241 7 -5 37 -11 66 -13 83 -6 95 14 83 133 -4 30 -2 52 4 52
12 0 38 -49 62 -114 22 -60 54 -96 85 -96 13 0 22 4 19 9 -3 5 9 11 27 15 17
4 33 2 35 -3 2 -5 14 -7 28 -5 20 4 24 0 24 -19 0 -32 -8 -37 -36 -27 -14 6
-24 6 -24 1 0 -5 -9 -7 -19 -4 -13 3 -23 -2 -31 -17 -12 -22 -5 -43 8 -24 9
15 38 23 89 26 38 2 42 5 41 25 -2 13 -5 23 -8 23 -3 0 -6 9 -7 19 -2 22 25
37 33 18 3 -8 26 -12 64 -13 47 0 61 3 65 16 3 9 16 23 30 30 13 7 27 20 30
28 4 12 3 13 -10 2 -19 -16 -52 -5 -37 13 6 7 9 64 6 145 -2 89 0 131 7 127 5
-4 7 -15 4 -26 -4 -10 -3 -19 2 -19 5 0 14 -14 21 -32 9 -25 9 -34 -1 -40 -8
-5 -7 -8 6 -8 10 0 17 -8 17 -18 0 -10 3 -22 7 -26 4 -3 8 -14 9 -24 2 -9 8
-18 13 -20 6 -2 11 -11 11 -21 0 -9 9 -36 20 -59 16 -33 18 -47 10 -62 -9 -17
-14 -18 -33 -9 -12 7 -19 8 -15 4 5 -5 -6 -16 -22 -26 -24 -15 -30 -25 -30
-55 0 -44 19 -64 68 -71 78 -10 150 28 184 97 46 98 60 132 54 137 -3 3 3 18
13 32 10 14 21 43 25 64 4 20 10 37 14 37 4 0 8 8 9 19 2 28 46 116 51 102 3
-8 -2 -17 -9 -22 -8 -5 -9 -9 -4 -9 12 0 13 -90 1 -109 -6 -9 -5 -12 1 -8 6 4
9 -24 8 -73 -1 -122 -2 -121 198 -122 90 -1 169 2 176 6 6 4 11 4 11 -1 0 -4
8 4 17 17 21 29 18 86 -5 115 -15 18 -27 20 -122 17 l-106 -2 1 32 1 33 79 2
c44 2 87 4 95 6 44 8 64 48 49 100 -10 38 -29 45 -129 47 -87 1 -93 3 -96 33
-1 15 0 27 4 28 54 9 158 7 171 -4 12 -9 13 -9 7 1 -5 8 0 12 17 12 14 0 29 6
35 13 11 13 21 118 11 111 -4 -2 -12 3 -19 11 -8 9 -26 15 -44 13 -18 -1 -38
2 -45 7 -8 5 -12 4 -8 -1 3 -5 -52 -9 -131 -9 -159 1 -162 -1 -164 -89 -2 -53
-2 -53 -28 -46 -28 8 -94 5 -110 -5 -12 -8 -41 -73 -43 -97 -1 -10 -5 -18 -10
-18 -4 0 -7 -6 -5 -12 1 -7 -5 -26 -15 -43 l-16 -30 -1 28 c0 15 -4 27 -9 27
-5 0 -14 22 -21 49 -6 28 -22 61 -34 74 -12 13 -20 30 -18 37 4 10 -1 11 -14
5 -27 -12 -124 -22 -124 -14 0 4 6 10 13 12 9 4 8 6 -2 6 -11 1 -11 4 -1 16 9
10 9 15 1 15 -6 0 -10 3 -9 8 1 4 -1 22 -5 40 -7 35 -5 34 -114 36 -28 1 -54
4 -58 8 -3 3 -20 -7 -37 -24 -16 -16 -27 -32 -24 -35 3 -3 1 -12 -5 -20 -9
-10 -15 -11 -26 -2 -10 9 -17 9 -25 1 -9 -9 -7 -12 9 -12 26 0 33 -31 19 -72
-12 -33 -36 -37 -43 -8 -4 14 -10 17 -22 11 -20 -11 -41 -3 -41 15 0 8 6 11
15 8 8 -4 15 -1 15 5 0 6 -8 11 -19 11 -10 0 -21 9 -24 19 -3 14 2 21 19 25
13 4 24 10 24 15 0 6 -12 6 -31 1 -22 -7 -29 -6 -26 3 6 20 -21 39 -65 45
l-41 5 29 24 c16 12 24 23 19 23 -6 0 -18 -7 -27 -16z m52 -86 c45 -123 90
-262 100 -313 l13 -60 16 75 c10 41 37 132 61 202 l45 128 85 0 85 0 0 -265 0
-265 -59 0 -59 0 5 218 5 217 -23 -90 c-12 -49 -42 -146 -67 -215 l-45 -125
-49 -3 -50 -3 -51 148 c-28 81 -58 174 -66 206 -8 33 -16 60 -18 62 -3 3 0
-264 5 -363 l2 -52 -57 0 -58 0 0 265 0 265 84 0 84 0 12 -32z m1260 -19 l0
-50 -121 2 -121 1 -2 -61 -1 -61 111 0 112 0 4 -45 3 -45 -115 0 -115 0 0 -65
0 -65 121 0 122 0 4 -45 3 -45 -182 0 -182 0 0 265 1 265 179 0 179 0 0 -51z
m-667 -171 c15 -45 37 -114 47 -153 10 -38 19 -62 19 -52 1 10 21 80 46 155
l44 137 61 0 c36 0 58 -4 56 -10 -3 -5 -26 -64 -51 -130 -146 -380 -140 -367
-186 -391 -27 -14 -149 -20 -149 -8 0 4 5 24 12 46 10 34 15 38 34 34 31 -8
54 3 65 31 7 18 -7 64 -66 222 -41 110 -75 201 -75 203 0 1 26 2 57 1 l57 -1
29 -84z m-480 73 c5 -1 6 -5 2 -10 -3 -5 4 -13 16 -16 17 -6 19 -9 8 -16 -8
-4 -14 -15 -14 -23 0 -9 -3 -16 -7 -16 -5 0 -13 0 -19 0 -5 0 -7 5 -4 10 3 6
1 10 -6 10 -6 0 -9 8 -6 19 3 12 -1 22 -10 25 -19 8 -7 25 15 21 9 -2 21 -4
25 -4z m154 -183 c-3 -8 -6 -5 -6 6 -1 11 2 17 5 13 3 -3 4 -12 1 -19z m0 -65
c0 -27 2 -54 4 -62 7 -23 -15 -23 -40 0 l-22 21 21 23 c12 13 19 28 15 34 -7
12 2 31 14 31 5 0 8 -21 8 -47z m-20 -93 c27 0 32 -28 6 -36 -10 -3 -26 -10
-35 -15 -25 -13 -28 -12 -28 11 0 11 7 20 15 20 8 0 15 5 15 10 0 6 -4 10 -10
10 -5 0 -10 5 -10 12 0 9 3 9 12 0 7 -7 22 -12 35 -12z"/>
<path d="M1020 1325 c-19 -7 -46 -14 -59 -14 -13 -1 -22 -4 -18 -7 9 -9 83 6
104 21 22 17 18 17 -27 0z"/>
<path d="M3935 1332 c-16 -2 -34 -8 -40 -14 -7 -7 2 -8 30 -3 59 10 67 24 10
17z"/>
<path d="M858 1323 c-21 -2 -38 -7 -38 -11 0 -10 83 -2 95 9 5 6 3 8 -5 7 -8
-1 -32 -3 -52 -5z"/>
<path d="M1314 1308 c12 -7 21 -7 28 0 6 6 0 10 -18 10 -23 0 -24 -2 -10 -10z"/>
<path d="M4230 1311 c0 -4 -10 -19 -22 -32 -24 -25 -52 -79 -45 -85 2 -2 10 8
18 24 8 15 21 34 30 42 23 22 42 60 29 60 -5 0 -10 -4 -10 -9z"/>
<path d="M431 1296 c-7 -8 -13 -44 -14 -79 -1 -36 -5 -63 -9 -61 -4 3 -8 0 -8
-5 0 -6 3 -11 8 -11 4 0 8 -84 9 -186 2 -219 4 -225 84 -219 61 4 82 20 77 57
-3 15 0 30 6 32 7 3 7 5 1 5 -6 1 -9 51 -8 133 2 170 2 168 11 168 4 0 8 -84
9 -187 1 -169 3 -187 20 -197 38 -22 153 -11 138 13 -3 5 -1 12 5 16 6 4 8 11
4 16 -11 19 -6 220 7 235 6 8 25 14 40 14 22 0 32 -6 39 -26 13 -33 13 -34 -7
-34 -15 0 -14 -2 3 -14 16 -13 17 -18 6 -35 -7 -12 -9 -21 -4 -21 4 0 8 -36 7
-80 0 -89 -3 -86 73 -94 18 -2 35 -6 39 -9 9 -10 34 20 43 52 4 16 6 86 4 156
-3 105 -7 134 -25 170 -12 24 -31 46 -41 49 -11 2 -17 9 -14 14 9 15 -151 12
-164 -3 -9 -11 -16 -11 -38 1 -31 16 -112 19 -112 4 0 -5 -6 -10 -14 -10 -8 0
-17 -6 -19 -12 -3 -7 -6 7 -7 32 -2 83 -8 112 -21 121 -23 14 -115 11 -128 -5z
m124 -271 l0 -265 -57 0 -58 0 0 265 0 265 58 0 57 0 0 -265z m173 93 c-2 -21
0 -38 4 -38 5 0 8 6 8 13 0 26 48 59 92 64 63 7 112 -16 137 -66 18 -35 21
-59 21 -186 l0 -145 -55 0 -55 0 0 129 c0 115 -2 131 -21 155 -22 27 -56 34
-89 16 -30 -16 -41 -79 -36 -195 l5 -105 -59 0 -60 0 0 198 0 197 56 0 56 0
-4 -37z"/>
<path d="M3873 1290 c1 -23 5 -25 40 -23 21 0 44 6 51 13 8 9 0 10 -36 5 -40
-6 -47 -4 -51 12 -3 12 -4 10 -4 -7z"/>
<path d="M1340 1269 c0 -5 5 -7 10 -4 6 3 10 8 10 11 0 2 -4 4 -10 4 -5 0 -10
-5 -10 -11z"/>
<path d="M973 1223 c9 -2 23 -2 30 0 6 3 -1 5 -18 5 -16 0 -22 -2 -12 -5z"/>
<path d="M990 1190 c-12 -8 -11 -10 8 -10 12 0 22 5 22 10 0 13 -11 13 -30 0z"/>
<path d="M3510 1193 c0 -8 -11 -11 -30 -9 -16 2 -27 -1 -24 -5 3 -5 -1 -9 -8
-9 -20 0 -77 -55 -89 -86 l-10 -28 -19 31 c-47 78 -154 117 -250 92 -28 -8
-90 -48 -90 -59 0 -5 -5 -10 -11 -10 -6 0 -9 9 -6 19 9 36 -24 52 -94 49 l-64
-3 -24 -70 c-14 -38 -27 -72 -30 -75 -3 -3 -6 -11 -7 -17 -2 -28 -4 -33 -13
-33 -5 0 -16 20 -24 44 -11 33 -12 47 -4 56 9 10 9 11 0 6 -8 -4 -16 8 -24 34
-7 23 -22 46 -33 53 -26 14 -82 16 -118 4 -32 -10 -35 -31 -12 -85 9 -20 18
-46 20 -57 3 -11 6 -24 8 -30 1 -5 9 -24 19 -41 9 -17 21 -52 28 -78 6 -25 15
-49 20 -52 5 -3 9 -16 9 -30 0 -13 4 -24 10 -24 14 0 8 -49 -7 -54 -7 -3 -20
-4 -30 -2 -10 2 -26 -5 -35 -16 -10 -10 -15 -18 -12 -18 3 0 -4 -13 -15 -29
l-20 -28 25 -24 c13 -12 30 -24 37 -25 6 -2 27 -7 45 -13 18 -5 30 -6 27 -1
-6 9 18 20 45 20 10 0 34 15 52 34 55 57 69 76 56 76 -6 0 -4 8 6 19 10 11 15
24 12 29 -3 5 1 15 8 22 8 6 15 19 14 28 0 20 21 75 42 112 14 25 16 31 19 50
0 6 4 10 9 10 4 0 8 -21 10 -47 2 -26 8 -53 14 -60 6 -8 8 -16 5 -20 -13 -12
94 -102 129 -109 18 -3 37 -5 40 -4 4 1 10 -3 13 -8 4 -5 31 -4 70 4 53 11 72
21 107 55 l43 42 26 -31 c14 -17 44 -39 65 -48 22 -10 40 -22 40 -26 0 -5 9
-4 21 2 11 7 38 9 58 6 21 -3 50 -2 64 2 39 11 115 80 121 110 14 61 14 72 5
72 -6 0 -9 5 -7 11 4 12 -54 74 -76 82 -6 3 -7 8 -2 13 5 5 11 4 13 -3 3 -9
15 -2 35 17 35 36 32 55 -17 101 -42 40 -78 55 -130 54 -22 0 -43 5 -47 10 -5
6 -8 5 -8 -2z m-821 -168 c22 -71 42 -141 44 -155 3 -24 4 -24 11 5 4 17 26
86 49 154 l42 123 58 2 c31 0 57 1 57 1 0 0 -40 -106 -89 -234 -92 -241 -111
-277 -152 -298 -23 -12 -131 -18 -141 -8 -3 3 0 23 6 46 10 37 12 39 39 33 31
-7 67 17 67 45 0 12 -102 295 -144 401 -5 12 4 15 53 15 l59 0 41 -130z m520
125 c69 -20 111 -78 126 -177 l7 -43 -141 0 c-78 0 -141 -2 -141 -5 0 -3 7
-21 15 -40 23 -57 84 -71 132 -31 25 21 34 23 71 16 24 -4 45 -10 48 -13 4 -3
-4 -20 -16 -38 -62 -86 -226 -93 -301 -12 -50 54 -66 120 -48 203 24 112 132
173 248 140z m427 -9 c40 -18 74 -53 74 -77 0 -6 -20 -15 -44 -21 -39 -9 -45
-7 -64 14 -37 42 -119 24 -110 -24 2 -13 19 -22 58 -31 136 -31 170 -54 170
-118 0 -80 -54 -124 -159 -132 -57 -4 -77 -1 -113 17 -39 18 -78 63 -78 89 0
5 23 14 50 19 28 6 50 6 50 2 0 -5 9 -18 20 -29 35 -35 120 -21 120 20 0 24
-21 35 -80 45 -103 17 -150 54 -150 121 0 30 7 51 23 69 45 53 158 70 233 36z
m-46 -106 c10 -12 10 -15 -3 -15 -9 0 -18 4 -22 10 -3 5 -12 7 -19 4 -8 -3
-17 -1 -21 5 -10 17 51 13 65 -4z m-663 -47 c-3 -8 -6 -5 -6 6 -1 11 2 17 5
13 3 -3 4 -12 1 -19z m456 -93 c-42 -24 -66 -17 -41 12 8 10 18 27 22 37 6 18
8 18 31 -4 l25 -24 -37 -21z m-173 -3 c0 -2 -8 -11 -17 -18 -21 -16 -67 -19
-58 -4 3 5 0 7 -8 4 -8 -3 -17 1 -20 9 -4 10 7 13 49 14 30 0 54 -2 54 -5z
m330 -12 c0 -5 7 -7 15 -4 8 4 15 1 15 -5 0 -12 -29 -15 -54 -5 -23 9 -20 24
4 24 11 0 20 -4 20 -10z"/>
<path d="M3096 1058 c-13 -13 -27 -32 -30 -43 -5 -19 -1 -20 79 -20 96 0 104
8 56 56 -35 35 -71 37 -105 7z m68 -14 c26 -10 18 -21 -14 -21 -29 0 -37 7
-23 20 8 9 17 9 37 1z"/>
<path d="M4141 1191 c-1 -8 -8 -21 -16 -30 -33 -35 -65 -80 -65 -90 0 -7 -7
-14 -15 -17 -8 -4 -15 -12 -15 -18 0 -7 -9 -22 -20 -34 -12 -12 -18 -22 -14
-22 4 0 1 -8 -7 -17 -8 -10 -21 -31 -29 -46 -8 -16 -24 -40 -37 -53 -12 -14
-23 -25 -23 -27 -8 -34 -14 -47 -21 -47 -5 0 -9 -7 -9 -15 0 -17 9 -19 30 -5
10 7 11 10 2 10 -8 0 -3 14 13 38 14 20 38 57 53 81 15 23 44 69 65 102 20 32
37 65 37 74 0 9 4 14 8 11 12 -7 75 90 69 106 -4 10 -6 10 -6 -1z"/>
<path d="M3742 971 c-11 -7 -10 -9 3 -14 9 -4 14 -3 10 2 -3 5 1 12 7 14 7 3
9 6 3 6 -5 0 -16 -3 -23 -8z"/>
<path d="M1695 850 c-3 -5 -1 -10 4 -10 6 0 11 5 11 10 0 6 -2 10 -4 10 -3 0
-8 -4 -11 -10z"/>
<path d="M1720 740 c0 -5 5 -10 10 -10 6 0 10 5 10 10 0 6 -4 10 -10 10 -5 0
-10 -4 -10 -10z"/>
<path d="M3854 736 c-3 -9 -10 -13 -15 -10 -5 3 -9 -4 -9 -14 0 -11 -7 -25
-15 -32 -8 -7 -12 -16 -10 -21 3 -4 -3 -17 -15 -29 -19 -19 -19 -20 -2 -20 13
0 22 12 31 40 6 22 17 40 23 40 6 0 8 3 5 7 -4 3 0 15 10 25 9 10 13 21 10 24
-4 4 -9 -1 -13 -10z"/>
<path d="M2900 726 c-22 -7 -36 -18 -38 -31 -3 -19 -2 -19 15 2 14 16 26 20
56 18 41 -4 46 -1 20 14 -12 5 -31 5 -53 -3z"/>
<path d="M2924 685 c-10 -8 -14 -15 -7 -15 6 0 14 -8 16 -17 4 -17 5 -17 6 0
0 9 5 17 10 17 5 0 11 7 15 15 7 19 -14 19 -40 0z"/>
<path d="M3914 652 c3 -6 2 -13 -3 -16 -4 -3 -8 -17 -8 -32 0 -17 2 -22 8 -13
4 7 5 17 2 21 -2 5 0 15 7 23 8 10 8 15 -1 21 -7 4 -9 3 -5 -4z"/>
<path d="M1475 641 c-13 -12 -57 -17 -71 -8 -7 4 -17 0 -24 -8 -11 -13 -6 -15
33 -15 47 0 97 16 97 32 0 11 -24 10 -35 -1z"/>
<path d="M1335 600 c-3 -5 -1 -10 4 -10 6 0 11 5 11 10 0 6 -2 10 -4 10 -3 0
-8 -4 -11 -10z"/>
<path d="M1960 600 c0 -5 5 -10 11 -10 5 0 7 5 4 10 -3 6 -8 10 -11 10 -2 0
-4 -4 -4 -10z"/>
<path d="M1425 570 c-3 -6 1 -7 9 -4 18 7 21 14 7 14 -6 0 -13 -4 -16 -10z"/>
<path d="M2248 573 c7 -3 16 -2 19 1 4 3 -2 6 -13 5 -11 0 -14 -3 -6 -6z"/>
</g>
</svg>
